<?xml version="1.0" encoding="UTF-8" standalone="no" ?>
<!DOCTYPE svg PUBLIC "-//W3C//DTD SVG 1.1//EN" "http://www.w3.org/Graphics/SVG/1.1/DTD/svg11.dtd">
<svg xmlns="http://www.w3.org/2000/svg" xmlns:xlink="http://www.w3.org/1999/xlink" version="1.1" width="500" height="500" viewBox="0 0 500 500" xml:space="preserve">
<desc>Created with Fabric.js 4.6.0</desc>
<defs>
</defs>
<g transform="matrix(0.7 0 0 0.7 260.3 219.14)" id="dH4zyI6Dr3pB7s1L_vCkO"  >
<path style="stroke: none; stroke-width: 1; stroke-dasharray: none; stroke-linecap: butt; stroke-dashoffset: 0; stroke-linejoin: miter; stroke-miterlimit: 4; fill: rgb(255,255,255); fill-rule: nonzero; opacity: 1;" vector-effect="non-scaling-stroke"  transform=" translate(-287.99, -256)" d="M 511.8 287.6 L 512.5 447.7 C 512.5 450.5 512.3 453.1 512 455.8 L 512 472 C 512 494.1 494.1 512 472 512 L 456 512 C 454.9 512 453.8 511.1 452.7 511.9 C 451.3 511.1 449.9 512 448.5 512 L 392 512 C 369.9 512 352 494.1 352 472 L 352 384 C 352 366.3 337.7 352 320 352 L 256 352 C 238.3 352 224 366.3 224 384 L 224 472 C 224 494.1 206.1 512 184 512 L 128.1 512 C 126.6 512 125.1 511.9 123.6 511.8 C 122.4 511.9 121.2 512 120 512 L 104 512 C 81.91 512 64 494.1 64 472 L 64 360 C 64 359.1 64.03 358.1 64.09 357.2 L 64.09 287.6 L 32.05 287.6 C 14.02 287.6 0 273.5 0 255.5 C 0 246.5 3.004 238.5 10.01 231.5 L 266.4 8.016 C 273.4 1.002 281.4 0 288.4 0 C 295.4 0 303.4 2.004 309.5 7.014 L 416 100.7 L 416 64 C 416 46.33 430.3 32 448 32 L 480 32 C 497.7 32 512 46.33 512 64 L 512 185 L 564.8 231.5 C 572.8 238.5 576.9 246.5 575.8 255.5 C 575.8 273.5 560.8 287.6 543.8 287.6 L 511.8 287.6 z" stroke-linecap="round" />
</g>
<g transform="matrix(0.33 0 0 0.33 260.3 183.94)" id="GhLPYDC9fZujozjzvme2g"  >
<path style="stroke: none; stroke-width: 1; stroke-dasharray: none; stroke-linecap: butt; stroke-dashoffset: 0; stroke-linejoin: miter; stroke-miterlimit: 4; fill: rgb(124,148,115); fill-rule: nonzero; opacity: 1;" vector-effect="non-scaling-stroke"  transform=" translate(-255.97, -255.99)" d="M 256 224 C 176.63 224 64.9 346.7 64.9 424.2 C 64.02 459.1 90.76 480 135.8 480 C 184.6 480 216.9 454.9 256 454.9 C 295.5 454.9 327.9 480 376.2 480 C 420.3 480 447.94 459.12 447.94 424.25 C 447.1 346.8 335.4 224 256 224 z M 108.8 211.4 C 98.42999999999999 176.78 66.3 154.28 37.17999999999999 161.28 C 8.059999999999988 168.28 -7.104 202 3.27 236.6 C 13.64 271.3 45.77 293.8 74.89 286.8 C 104.00999999999999 279.8 119.1 246 108.8 211.4 z M 193.5 190.6 C 224.37 182.475 239.87 141.5 228 97.22999999999999 C 216.13 52.95999999999998 181.5 26.129999999999995 150.51 33.35999999999999 C 119.63999999999999 41.48499999999999 104.13999999999999 82.46 116.00999999999999 126.72999999999999 C 127.9 170.1 162.5 198.8 193.5 190.6 z M 474.9 161.3 C 445.78 155.20000000000002 413.65 176.8 403.28 211.42000000000002 C 392.90999999999997 246.05 408.03 279.79 437.15 286.79 C 466.27 292.89000000000004 498.27 271.29 508.77 236.67000000000002 C 519.1 202 503.1 168.3 474.9 161.3 z M 318.5 190.6 C 348.6 198.725 384.12 170.1 395.99 126.72999999999999 C 407.86 83.35999999999999 392.365 41.47999999999999 361.49 33.359999999999985 C 331.39 25.234999999999985 295.87 53.859999999999985 284 97.22999999999999 C 272.1 140.6 287.6 182.5 318.5 190.6 z" stroke-linecap="round" />
</g>
</svg>